<?xml version="1.0" encoding="UTF-8" standalone="no"?><!DOCTYPE svg PUBLIC "-//W3C//DTD SVG 1.1//EN" "http://www.w3.org/Graphics/SVG/1.1/DTD/svg11.dtd"><svg width="100%" height="100%" viewBox="0 0 7013 7038" version="1.1" xmlns="http://www.w3.org/2000/svg" xmlns:xlink="http://www.w3.org/1999/xlink" xml:space="preserve" xmlns:serif="http://www.serif.com/" style="fill-rule:evenodd;clip-rule:evenodd;stroke-linecap:round;stroke-linejoin:round;stroke-miterlimit:1.5;"><g id="_-entire--logo" serif:id="(entire) logo"><g id="logo"><path id="background" d="M3614.59,902.877c1652.59,0 2994.28,1341.69 2994.28,2994.28c0,1652.59 -1341.69,2994.28 -2994.28,2994.28c-1652.59,-0 -2994.28,-1341.69 -2994.28,-2994.28c0,-1652.59 1341.69,-2994.28 2994.28,-2994.28Zm-0,812.125c1204.36,0 2182.16,977.791 2182.16,2182.16c0,1204.36 -977.791,2182.16 -2182.16,2182.16c-1204.37,0 -2182.16,-977.791 -2182.16,-2182.16c0,-1204.37 977.791,-2182.16 2182.16,-2182.16Z" style="fill:#82ce86;stroke:#82ce86;stroke-width:104.17px;"/><path id="background1" serif:id="background" d="M3614.59,902.877c1652.59,0 2994.28,1341.69 2994.28,2994.28c0,1652.59 -1341.69,2994.28 -2994.28,2994.28c-1652.59,-0 -2994.28,-1341.69 -2994.28,-2994.28c0,-1652.59 1341.69,-2994.28 2994.28,-2994.28Zm-0,812.125c1204.36,0 2182.16,977.791 2182.16,2182.16c0,1204.36 -977.791,2182.16 -2182.16,2182.16c-1204.37,0 -2182.16,-977.791 -2182.16,-2182.16c0,-1204.37 977.791,-2182.16 2182.16,-2182.16Z" style="fill:#82ce86;stroke:#82ce86;stroke-width:104.17px;"/><g id="character"><path id="head" d="M1524.7,2808.92c-0,0 2778.86,-624.37 3652.45,219.017c-0,0 341.315,448.256 355.509,1223.11c14.194,774.855 595.395,878.778 495.294,988.39c-217.777,238.472 -856.182,-312.811 -1265.74,-26.963c-349.917,244.223 -651.673,1031.57 -1031.41,1454.11c-305.779,340.241 -893.497,32.017 -893.497,32.017c0,-0 -334.504,-763.039 -293.373,-1134.76c41.131,-371.717 134.526,-813.794 -390.865,-1313.96l-672.467,-658.065l-15.344,-159.211c0,0 268.728,119.142 472.035,-223.144c-0,0 -358.087,-177.029 -412.591,-400.539Z" style="fill:#e6e6e6;"/><clipPath id="_clip1"><path id="head1" serif:id="head" d="M1524.7,2808.92c-0,0 2778.86,-624.37 3652.45,219.017c-0,0 341.315,448.256 355.509,1223.11c14.194,774.855 595.395,878.778 495.294,988.39c-217.777,238.472 -856.182,-312.811 -1265.74,-26.963c-349.917,244.223 -651.673,1031.57 -1031.41,1454.11c-305.779,340.241 -893.497,32.017 -893.497,32.017c0,-0 -334.504,-763.039 -293.373,-1134.76c41.131,-371.717 134.526,-813.794 -390.865,-1313.96l-672.467,-658.065l-15.344,-159.211c0,0 268.728,119.142 472.035,-223.144c-0,0 -358.087,-177.029 -412.591,-400.539Z"/></clipPath><g clip-path="url(#_clip1)"><path d="M1348.41,2736.3c-0,-0 2778.86,-624.371 3652.45,219.017c-0,0 373.455,430.544 387.649,1205.4c14.194,774.854 305.463,672.468 205.363,782.08c-217.778,238.472 -1069.17,-519.626 -1478.73,-233.779c-349.918,244.223 -299.874,1367.86 -679.611,1790.4c-305.78,340.241 -750.908,184 -750.908,184c-0,-0 -358.115,-820.474 -316.984,-1192.19c41.131,-371.717 134.526,-813.794 -390.866,-1313.96l-672.467,-658.064l-15.343,-159.211c0,-0 268.728,119.142 472.035,-223.144c-0,0 -358.087,-177.029 -412.591,-400.539Z" style="fill:#fff;"/></g><path id="underthing" d="M1465.26,3566.81c0,0 150.68,277.618 -332.262,844.334c-482.943,566.716 1003.44,1206.09 1375.5,1201.68c372.06,-4.416 174.402,-922.505 174.402,-922.505l-454.411,-507.516l-763.233,-615.989Z" style="fill:#c37274;"/><clipPath id="_clip2"><path id="underthing1" serif:id="underthing" d="M1465.26,3566.81c0,0 150.68,277.618 -332.262,844.334c-482.943,566.716 1003.44,1206.09 1375.5,1201.68c372.06,-4.416 174.402,-922.505 174.402,-922.505l-454.411,-507.516l-763.233,-615.989Z"/></clipPath><g clip-path="url(#_clip2)"><path d="M1572.26,3558.97c0,0 150.68,277.618 -332.263,844.334c-482.942,566.716 1003.45,1206.09 1375.51,1201.67c372.06,-4.415 174.402,-922.504 174.402,-922.504l-454.411,-507.516l-763.233,-615.989Z" style="fill:#cf1a28;"/></g><g id="beak"><path id="bottom" d="M1482.38,3593.28c-292.075,-241.918 -627.32,-373.061 -970.75,-376.403l106.642,-124.483l817.593,4.893l644.609,16.766l-155.304,247.238l-442.79,231.989Z" style="fill:#b19b73;"/><path id="top" d="M1196.29,2700.05c-0,0 -889.721,-189.949 -783.92,569.155c-0,0 -30.124,-57.286 139.23,-119.662c169.355,-62.377 1183.7,60.859 1294.49,144.413c110.791,83.555 234.394,-184.445 234.394,-184.445l-234.89,-166.996l-181.18,-138.057l-468.121,-104.408Z" style="fill:#dac9a9;"/></g><path id="comb-w--accent" serif:id="comb w/ accent" d="M2240.44,2791.41c-68.879,35.078 -851.343,203.286 -775.181,-34.92c61.383,-191.981 -124.078,-572.27 115.242,-1089.9c277.905,-601.084 333.409,-577.73 443.302,-691.866c12.703,-13.194 89.547,-30.159 197.268,-145.444c141.841,-151.8 421.414,-383.523 367.778,-92.574c-16.775,90.995 -221.816,521.245 115.771,191.309c235.599,-230.261 193.34,-406.443 636.782,-659.54c264.125,-150.75 931.446,-181.355 1272.87,17.356c-76.901,54.876 -451.278,330.842 82.997,607.545c115.443,59.788 -261.611,292.443 119.014,460.223c92.412,40.735 179.537,74.266 279.727,116.976c353.527,150.704 750.63,254.042 768.681,433.759c-0,-0 -1037.18,250.442 -619.234,337.843c92.436,19.331 588.302,300.955 -47.013,819.777c-0,-0 -1815.88,-852.19 -2958,-270.548Z" style="fill:#c37274;"/><clipPath id="_clip3"><path d="M2240.44,2791.41c-68.879,35.078 -851.343,203.286 -775.181,-34.92c61.383,-191.981 -124.078,-572.27 115.242,-1089.9c277.905,-601.084 333.409,-577.73 443.302,-691.866c12.703,-13.194 89.547,-30.159 197.268,-145.444c141.841,-151.8 421.414,-383.523 367.778,-92.574c-16.775,90.995 -221.816,521.245 115.771,191.309c235.599,-230.261 193.34,-406.443 636.782,-659.54c264.125,-150.75 931.446,-181.355 1272.87,17.356c-76.901,54.876 -451.278,330.842 82.997,607.545c115.443,59.788 -261.611,292.443 119.014,460.223c92.412,40.735 179.537,74.266 279.727,116.976c353.527,150.704 750.63,254.042 768.681,433.759c-0,-0 -1037.18,250.442 -619.234,337.843c92.436,19.331 588.302,300.955 -47.013,819.777c-0,-0 -1815.88,-852.19 -2958,-270.548Z"/></clipPath><g clip-path="url(#_clip3)"><path d="M2348.41,2896.33c0,-0 -988.803,232.073 -843.277,-124.276c79.301,-194.184 -79.054,-406.879 183.338,-1000.54c277.343,-627.486 437.808,-826.042 544.106,-862.39c151.792,-51.903 495.738,-685.267 306.626,59.936c-0,-0 -134.461,221.54 304.257,-27.158c286.59,-162.46 87.924,-208.503 506.392,-599.808c222.132,-207.713 977.073,-208.84 1318.5,-10.129c-76.901,54.876 -427.495,364.746 121.974,609.896c146.014,65.145 -160.748,290.408 163.807,448.363c35.648,17.349 72.312,33.543 109.563,48.802c392.473,160.768 850.12,217.757 871.279,428.412c-0,-0 -837.162,257.72 -419.217,345.121c92.435,19.33 423.114,463.352 -212.201,982.173c-0,0 -1813.02,-880.043 -2955.14,-298.401Z" style="fill:#cf1a28;"/></g><path id="eyeball" d="M2858.86,3194.73c193.841,0 351.215,157.374 351.215,351.215c-0,95.879 -38.503,182.836 -100.877,246.24c-63.729,64.781 -152.376,104.975 -250.338,104.975c-193.841,-0 -351.215,-157.374 -351.215,-351.215c0,-193.841 157.374,-351.215 351.215,-351.215Z" style="stroke:#fff;stroke-width:45.83px;"/></g></g></g></svg>